<?xml version="1.0" standalone="no"?>
<!DOCTYPE svg PUBLIC "-//W3C//DTD SVG 20010904//EN"
 "http://www.w3.org/TR/2001/REC-SVG-20010904/DTD/svg10.dtd">
<svg version="1.0" xmlns="http://www.w3.org/2000/svg"
 width="260.000000pt" height="260.000000pt" viewBox="0 0 260.000000 260.000000"
 preserveAspectRatio="xMidYMid meet">
<metadata>
Created by potrace 1.11, written by Peter Selinger 2001-2013
</metadata>
<g transform="translate(0.000000,260.000000) scale(0.100000,-0.100000)"
fill="#000000" stroke="none">
<path d="M0 1300 l0 -1300 1300 0 1300 0 0 1300 0 1300 -1300 0 -1300 0 0
-1300z m2457 383 l1 -93 -159 0 -159 0 0 -385 0 -385 -120 0 -120 0 0 385 0
385 -160 0 -160 0 0 88 c0 49 3 92 7 95 3 4 200 6 437 5 l431 -3 2 -92z
m-1963 -255 c44 -186 81 -336 83 -334 2 1 37 146 78 322 42 175 78 327 81 337
5 15 20 17 122 17 l117 0 80 -340 c43 -186 81 -338 82 -336 2 2 37 145 78 317
41 173 77 324 80 337 5 21 9 22 120 22 63 0 115 -3 115 -7 0 -8 -207 -895
-216 -926 -5 -16 -19 -17 -146 -15 l-141 3 -84 349 c-45 192 -84 351 -86 352
-2 2 -41 -156 -87 -351 l-84 -355 -141 0 -141 0 -108 455 c-59 250 -110 464
-113 475 -5 20 -2 21 113 18 l119 -3 79 -337z"/>
</g>
</svg>
